<svg xmlns="http://www.w3.org/2000/svg" width="375" height="85.337"><path data-name="パス 43723" d="M238.69 56.131c-21.19 2.4-35.545 3.328-51.2 3.328s-30.007-.928-51.184-3.328c-39.145-4.444-75.441-1.59-102.185 8.039C19.373 69.48 7.881 76.67 0 85.337h375c-7.88-8.665-19.37-15.856-34.116-21.165-26.741-9.63-63.044-12.48-102.194-8.041z" fill="#dff1fd"/><path data-name="パス 43810" d="M202.052 45.555a4.342 4.342 0 01-5.239-6.83 12.954 12.954 0 10-18.32.002 4.341 4.341 0 11-6.138 6.14 21.636 21.636 0 1130.6 0 4.337 4.337 0 01-.903.688z" fill="#dff1fd"/><g data-name="グループ 10970"><g data-name="グループ 10928" fill="#dff1fd"><path data-name="パス 43725" d="M16.884 48.289a7.277 7.277 0 004.45 4.443l1.28.372c1.9.543 1.9 1.444 0 1.987l-1.28.372a7.276 7.276 0 00-4.45 4.443l-.372 1.287c-.543 1.9-1.444 1.9-1.987 0l-.372-1.287a7.247 7.247 0 00-4.443-4.443l-1.287-.372c-1.9-.543-1.9-1.444 0-1.987l1.287-.372a7.247 7.247 0 004.443-4.443l.372-1.287c.543-1.9 1.444-1.9 1.987 0z"/><path data-name="パス 43727" d="M39.693 16.334a14.837 14.837 0 009.072 9.072l2.627.752c3.87 1.124 3.87 2.954 0 4.071l-2.627.752a14.837 14.837 0 00-9.072 9.071l-.752 2.62c-1.116 3.877-2.947 3.877-4.063 0l-.759-2.62a14.819 14.819 0 00-9.072-9.071l-2.619-.752c-3.87-1.116-3.87-2.947 0-4.071l2.619-.752a14.819 14.819 0 009.072-9.072l.759-2.619c1.116-3.877 2.947-3.877 4.063 0z"/></g><g data-name="グループ 10929"><path data-name="パス 43727" d="M349.627 40.377a9.84 9.84 0 01-6.016 6.016l-1.742.5c-2.566.745-2.566 1.959 0 2.7l1.742.5a9.84 9.84 0 016.016 6.016l.5 1.737c.74 2.571 1.954 2.571 2.695 0l.5-1.737a9.828 9.828 0 016.016-6.016l1.737-.5c2.566-.74 2.566-1.954 0-2.7l-1.737-.5a9.828 9.828 0 01-6.016-6.016l-.5-1.737c-.74-2.571-1.954-2.571-2.695 0z" fill="#dff1fd"/></g></g></svg>