<svg xmlns="http://www.w3.org/2000/svg" width="53.466" height="58.571"><path data-name="パス 43725" d="M11.174 42.374a8.226 8.226 0 005.031 5.023l1.447.421c2.145.614 2.145 1.632 0 2.246l-1.447.421a8.226 8.226 0 00-5.031 5.023l-.418 1.454c-.614 2.145-1.632 2.145-2.246 0l-.421-1.455a8.192 8.192 0 00-5.023-5.023l-1.455-.421c-2.145-.614-2.145-1.632 0-2.246l1.455-.421a8.193 8.193 0 005.023-5.023l.421-1.455c.614-2.145 1.632-2.145 2.246 0z" fill="#fff"/><path data-name="パス 43727" d="M36.96 6.249a16.773 16.773 0 0010.255 10.255l2.97.85c4.375 1.27 4.375 3.34 0 4.6l-2.97.85A16.773 16.773 0 0036.96 33.059l-.85 2.961c-1.262 4.383-3.332 4.383-4.594 0l-.858-2.961a16.753 16.753 0 00-10.255-10.255l-2.958-.848c-4.375-1.262-4.375-3.332 0-4.6l2.961-.85A16.753 16.753 0 0030.661 6.251l.858-2.961c1.262-4.383 3.332-4.383 4.594 0z" fill="#fff"/></svg>