<svg xmlns="http://www.w3.org/2000/svg" width="1311.235" height="725.536"><g fill="#dff1fd"><path data-name="パス 43822" d="M868.493 661.599C-22.241 908.341-66.821 373.199 52.859 203.03s386.8-102.6 512.72-78.151 302.917-44.436 302.917-44.436 154.191-80.575 253.769-68.887 174.084 65.979 187.593 174.267c15.969 128.034-105.191 383.546-441.365 475.776z"/><g data-name="グループ 11128"><path data-name="パス 43725" d="M26.283 122.451c1.464 5.046 6.787 10.349 11.833 11.813l3.4.99c5.046 1.444 5.046 3.839 0 5.283l-3.4.99c-5.046 1.464-10.369 6.767-11.833 11.813l-.989 3.423c-1.444 5.046-3.839 5.046-5.283 0l-.989-3.423c-1.445-5.046-6.767-10.349-11.813-11.813l-3.423-.99c-5.046-1.444-5.046-3.839 0-5.283l3.423-.99c5.046-1.464 10.369-6.767 11.813-11.813l.989-3.423c1.444-5.046 3.839-5.046 5.283 0z"/><path data-name="パス 43727" d="M86.932 37.483c2.988 10.29 13.832 21.153 24.121 24.121l6.985 2c10.29 2.988 10.29 7.856 0 10.824l-6.985 2c-10.29 2.968-21.133 13.832-24.121 24.121l-2 6.965c-2.968 10.309-7.836 10.309-10.8 0l-2.018-6.965c-2.971-10.29-13.835-21.156-24.123-24.124l-6.965-2c-10.29-2.968-10.29-7.836 0-10.824l6.965-2c10.29-2.968 21.153-13.832 24.121-24.121l2.018-6.965c2.968-10.309 7.836-10.309 10.8 0z"/></g><path data-name="パス 43823" d="M693.185 98.365a10 10 0 01-2.584-19.664 29.847 29.847 0 10-36.558-21.1 10.001 10.001 0 11-19.32 5.18 49.85 49.85 0 1161.058 35.24 9.993 9.993 0 01-2.596.344z"/></g></svg>