<svg xmlns="http://www.w3.org/2000/svg" width="556.499" height="307.924"><g fill="#dff1fd"><path data-name="パス 43822" d="M368.596 280.788C-9.441 385.507-28.359 158.388 22.433 86.168S186.594 42.624 240.033 53s128.561-18.859 128.561-18.859 65.44-34.2 107.7-29.236 73.883 28 79.616 73.96c6.782 54.338-44.637 162.78-187.314 201.923z"/><g data-name="グループ 11128"><path data-name="パス 43725" d="M11.156 51.969a8.212 8.212 0 005.022 5.014l1.444.42c2.142.613 2.142 1.629 0 2.242l-1.444.42a8.211 8.211 0 00-5.022 5.014l-.42 1.453c-.613 2.141-1.629 2.141-2.242 0l-.42-1.453a8.178 8.178 0 00-5.014-5.014l-1.454-.419c-2.142-.613-2.142-1.629 0-2.242l1.453-.42a8.178 8.178 0 005.014-5.014l.42-1.453c.613-2.142 1.629-2.142 2.242 0z"/><path data-name="パス 43727" d="M36.895 15.908a16.744 16.744 0 0010.237 10.236l2.965.848c4.367 1.268 4.367 3.334 0 4.594l-2.965.848a16.744 16.744 0 00-10.237 10.237l-.848 2.956c-1.26 4.375-3.326 4.375-4.585 0l-.857-2.956a16.723 16.723 0 00-10.237-10.237l-2.956-.848c-4.367-1.26-4.367-3.326 0-4.594l2.956-.848a16.723 16.723 0 0010.237-10.237l.857-2.956c1.26-4.375 3.326-4.375 4.585 0z"/></g><path data-name="パス 43823" d="M294.193 41.747a4.245 4.245 0 01-1.1-8.346 12.667 12.667 0 10-15.516-8.955 4.245 4.245 0 11-8.2 2.2 21.157 21.157 0 1125.914 14.956 4.24 4.24 0 01-1.098.145z"/></g></svg>