<svg xmlns="http://www.w3.org/2000/svg" width="25.048" height="14.669"><path d="M23.988 3.362h-4.947a1.06 1.06 0 00-1.06 1.06v9.187a1.06 1.06 0 001.06 1.06h4.947a1.06 1.06 0 001.06-1.06V4.422a1.06 1.06 0 00-1.06-1.06zm-2.474 10.6a.707.707 0 11.707-.707.706.706 0 01-.707.707zm2.474-2.385a.266.266 0 01-.265.265h-4.417a.266.266 0 01-.265-.265v-6.89a.266.266 0 01.265-.265h4.417a.266.266 0 01.265.265zM15.127 0H1.375A1.376 1.376 0 000 1.375v9.168a1.376 1.376 0 001.375 1.375h5.5l-.458 1.375H4.355a.688.688 0 100 1.375h7.793a.688.688 0 100-1.375h-2.063l-.458-1.375h5.5a1.376 1.376 0 001.373-1.375V1.375A1.376 1.376 0 0015.127 0zm-.458 10.085H1.834V1.834h12.835z" fill="#fff"/></svg>