<svg xmlns="http://www.w3.org/2000/svg" width="402.897" height="45.157"><g data-name="グループ 9040"><g data-name="グループ 9037" fill="#1391e6"><path data-name="パス 43697" d="M72.377 7.027h6.779q5.933.037 5.594 5.78-.255 2.252-.678 5.291a38.64 38.64 0 013.686 1.276q.212-1.614.424-4.353a2.418 2.418 0 012.755-2.478q2.923.074 2.838 2.478-.3 4.053-.636 6.568l1.695.864q3.094 1.277 1.865 4.5a2.678 2.678 0 01-3.9 1.051l-.721-.338a65.5 65.5 0 01-2.5 7.694 3.039 3.039 0 01-4.067 1.5q-2.8-1.2-1.526-3.6a32.684 32.684 0 002.67-8.069q-.975-.412-1.907-.77t-1.823-.657l-.042.076a26.375 26.375 0 01-2.034 5.1 16.526 16.526 0 01-3.242 4.429 6.608 6.608 0 01-4.216 1.952 5.5 5.5 0 01-4.938-2.666q-1.631-2.628-1.08-7.018a8.186 8.186 0 012.182-4.335 13.2 13.2 0 014.067-2.928 12.955 12.955 0 014.936-1.181q.17-1.2.3-2.327.169-1.8-1.441-1.839h-5.04q-3.39 0-3.391-3t3.391-3zm1.229 22.256a2.112 2.112 0 001.631-1.014 9.364 9.364 0 001.165-2.252q.465-1.277.72-2.271t.255-1.032a4.673 4.673 0 00-2.458.639 4.567 4.567 0 00-1.589 1.5 7.041 7.041 0 00-.741 1.538 3.026 3.026 0 00.148 2.177q.44.716.867.715z"/><path data-name="パス 43698" d="M100.726 12.431q0-2.815 3.178-2.815h2.161l.466-2.253q.467-1.989 3.305-2.027 2.967.151 2.458 2.328a12.912 12.912 0 00-.382 1.952h2.2q3.178 0 3.178 2.815 0 2.852-3.178 2.852h-3.221q-3.007 11.221-3.6 13.474-.636 2.214-3.559 1.8-2.881-.563-2.2-3 2.67-8.632 3.391-12.274h-1.017q-3.18 0-3.18-2.852zm23.857 6.456v3.678a35.718 35.718 0 014.746 1.988q1.82 1.2.508 3.453a2.588 2.588 0 01-3.559.751q-.593-.263-1.695-.638v2.439a7.126 7.126 0 01-1.081 4.3 5.337 5.337 0 01-2.606 1.951 9.75 9.75 0 01-3.094.506 11.533 11.533 0 01-4-.563 7.164 7.164 0 01-3.348-2.289 7.066 7.066 0 01-1.377-4.654 7.56 7.56 0 012.69-6.062q2.648-2.194 7.31-1.932v-2.928q0-2.44 2.754-2.44t2.75 2.44zm-6.781 13.136a1.13 1.13 0 00.953-.563 2.651 2.651 0 00.319-1.389v-3.19a5.068 5.068 0 00-3.475.488 2.8 2.8 0 00-1.313 2.176 2.083 2.083 0 00.91 1.989 4.292 4.292 0 002.604.489zm1.611-20.944q.848-2.589 3.9-1.876l3.813.9q3.051.751 2.2 3.3-.89 2.589-3.941 1.876l-3.771-.9q-3.095-.711-2.203-3.3z"/><path data-name="パス 43699" d="M139.708 7.027h6.781q5.933.037 5.594 5.78-.255 2.252-.679 5.291a38.533 38.533 0 013.687 1.276q.212-1.614.424-4.353a2.417 2.417 0 012.754-2.478q2.925.074 2.84 2.478-.3 4.053-.636 6.568l1.695.864q3.092 1.277 1.865 4.5a2.679 2.679 0 01-3.9 1.051l-.72-.338a65.778 65.778 0 01-2.5 7.694 3.041 3.041 0 01-4.069 1.5q-2.8-1.2-1.525-3.6a32.682 32.682 0 002.67-8.069q-.976-.412-1.907-.77t-1.822-.657l-.042.076a26.46 26.46 0 01-2.034 5.1 16.58 16.58 0 01-3.242 4.429 6.608 6.608 0 01-4.217 1.952 5.5 5.5 0 01-4.937-2.666q-1.631-2.628-1.081-7.018a8.2 8.2 0 012.182-4.335 13.2 13.2 0 014.069-2.928 12.95 12.95 0 014.937-1.181q.169-1.2.3-2.327.167-1.8-1.441-1.839h-5.044q-3.39 0-3.39-3t3.388-3zm1.229 22.256a2.114 2.114 0 001.632-1.014 9.364 9.364 0 001.165-2.252q.465-1.277.72-2.271t.254-1.032a4.672 4.672 0 00-2.457.639 4.567 4.567 0 00-1.589 1.5 7.111 7.111 0 00-.743 1.538 3.032 3.032 0 00.149 2.177q.446.716.869.715z"/><path data-name="パス 43700" d="M190.687 8.865c0 .251.14.375.424.375h13.772a2.837 2.837 0 011.949.713 2.214 2.214 0 010 3.416 2.836 2.836 0 01-1.949.713H170.3a2.776 2.776 0 01-1.907-.713 2.214 2.214 0 010-3.416 2.776 2.776 0 011.907-.713h2.882c.282 0 .424-.124.424-.375V5.938a2.429 2.429 0 01.89-1.878 3.244 3.244 0 014.238 0 2.433 2.433 0 01.89 1.878v2.927c0 .251.14.375.424.375h3.941c.281 0 .424-.124.424-.375V4.099a2.53 2.53 0 01.911-1.971 3.236 3.236 0 012.225-.806h.974a2.224 2.224 0 011.526.563 1.744 1.744 0 01.636 1.351c0 .15.084.225.254.225h10.128a2.533 2.533 0 011.737.639 2.045 2.045 0 010 3.115 2.537 2.537 0 01-1.737.637h-9.959c-.283 0-.424.124-.424.375zm8.348 22.783c.282 0 .424-.126.424-.375V17.611a2.466 2.466 0 01.89-1.915 3.359 3.359 0 014.323 0 2.466 2.466 0 01.889 1.915v17.6a2.462 2.462 0 01-.889 1.914 3.145 3.145 0 01-2.162.789h-1.525a1.578 1.578 0 01-1.081-.394 1.234 1.234 0 01-.444-.958c0-.1-.057-.149-.17-.149h-23.308c-.114 0-.17.049-.17.149a1.234 1.234 0 01-.444.958 1.578 1.578 0 01-1.081.394H172.8a3.086 3.086 0 01-2.119-.789 2.425 2.425 0 01-.89-1.876V17.573a2.429 2.429 0 01.89-1.878 3.242 3.242 0 014.237 0 2.428 2.428 0 01.889 1.878v9.233a.246.246 0 00.128.225.312.312 0 00.254.037 20.945 20.945 0 005.552-2.89.1.1 0 00.064-.131c-.015-.063-.064-.094-.148-.094h-2.755a2.314 2.314 0 01-1.589-.582 1.838 1.838 0 010-2.815 2.313 2.313 0 011.589-.581h.043c.168 0 .225-.076.168-.226a11.855 11.855 0 00-.848-1.538 1.559 1.559 0 01-.254-.825 1.837 1.837 0 01.084-.563 1.575 1.575 0 011.1-.977 3.048 3.048 0 011.059-.188 4.891 4.891 0 01.847.076 2.509 2.509 0 011.483 1.013 1.364 1.364 0 01.17.188 1.875 1.875 0 01.3.976 2.23 2.23 0 01-.126.713 2.32 2.32 0 01-1.4 1.239h-.042c-.029.025-.037.05-.022.074a.067.067 0 00.064.039h2.712q.423 0 .424-.375v-2.327a2.156 2.156 0 01.784-1.671 2.909 2.909 0 013.771 0 2.161 2.161 0 01.785 1.671v2.327c0 .25.14.375.424.375h3.348a.068.068 0 00.063-.039c.014-.025.006-.037-.02-.037l-.339-.112a1.953 1.953 0 01-1.313-1.089 1.807 1.807 0 01-.17-.751 1.86 1.86 0 01.212-.864 3.04 3.04 0 011.4-1.313 3 3 0 011.229-.263 2.289 2.289 0 01.72.113h.086a1.714 1.714 0 011.228 1.014 1.511 1.511 0 01.128.6 1.392 1.392 0 01-.339.9c-.592.775-1 1.3-1.228 1.576a.116.116 0 00-.022.17.179.179 0 00.148.094h.763a2.317 2.317 0 011.589.581 1.835 1.835 0 010 2.815 2.318 2.318 0 01-1.589.582h-2.966c-.086 0-.135.031-.149.094a.1.1 0 00.064.131 18.676 18.676 0 003.6 2.065 1.637 1.637 0 01.975 1.2 1.251 1.251 0 01.042.338 1.507 1.507 0 01-.466 1.051 3.747 3.747 0 01-1.865 1.013 2.6 2.6 0 01-.636.075 2.843 2.843 0 01-1.4-.375 23.7 23.7 0 01-3.22-2.4.18.18 0 00-.19-.037.147.147 0 00-.106.15v1.389a2.157 2.157 0 01-.785 1.67 2.909 2.909 0 01-3.771 0 2.152 2.152 0 01-.784-1.67v-1.239a.146.146 0 00-.106-.15.178.178 0 00-.19.037 20.721 20.721 0 01-2.416 1.915 3.828 3.828 0 01-2.034.6 3.969 3.969 0 01-.762-.076 5.024 5.024 0 01-2.586-1.388 3.4 3.4 0 01-.466-.413.18.18 0 00-.19-.038.148.148 0 00-.107.15v3.228c0 .25.142.375.425.375z"/><path data-name="パス 43701" d="M225.986 21.326a3 3 0 011.017 2.027v.225a2.916 2.916 0 01-.721 1.914 1.768 1.768 0 01-1.44.676.79.79 0 01-.213-.037 1.759 1.759 0 01-1.483-.863 4.177 4.177 0 01-.3-.45.108.108 0 00-.128-.057.091.091 0 00-.084.094v11.147a2.466 2.466 0 01-.89 1.915 3.359 3.359 0 01-4.323 0 2.465 2.465 0 01-.89-1.915V27.22a.087.087 0 00-.064-.094c-.042-.013-.079.007-.106.056a36.983 36.983 0 01-1.823 3.227 1.52 1.52 0 01-1.355.713h-.212a1.841 1.841 0 01-1.526-.975 4.487 4.487 0 01-.55-2.177v-.375a5.172 5.172 0 01.932-2.478 39.6 39.6 0 003.729-6.567.288.288 0 00-.042-.263.258.258 0 00-.212-.112h-1.992a3.025 3.025 0 01-2.076-.751 2.345 2.345 0 01-.847-1.821 2.4 2.4 0 01.847-1.839 2.975 2.975 0 012.076-.769h2.8c.281 0 .424-.125.424-.375V9.805a.291.291 0 00-.128-.244.48.48 0 00-.3-.094l-1.271.188a2.445 2.445 0 01-.424.037 2.827 2.827 0 01-1.526-.451 3.14 3.14 0 01-1.271-1.5 1.912 1.912 0 01-.126-.675 1.814 1.814 0 01.254-.9 1.947 1.947 0 011.441-.9 85.631 85.631 0 008.644-1.914 4.461 4.461 0 011.271-.187 4.9 4.9 0 011.313.188 3.626 3.626 0 012.034 1.388 1.66 1.66 0 01.254 1.839 1.978 1.978 0 01-1.483 1.239q-1.059.263-2.161.487c-.283.05-.424.2-.424.451v3.866c0 .25.14.375.424.375h1.992a2.974 2.974 0 012.075.769 2.4 2.4 0 01.849 1.839 2.347 2.347 0 01-.849 1.821 3.024 3.024 0 01-2.075.751h-2.332c-.057 0-.084.025-.084.074a.121.121 0 00.084.113q.855.671 3.271 2.961zm25.257 4.429a2.561 2.561 0 01.042.45 2.476 2.476 0 01-.551 1.54 2.978 2.978 0 01-1.949 1.088l-1.483.262c-.283.025-.424.162-.424.413v6.418a2.5 2.5 0 01-.911 1.933 3.412 3.412 0 01-4.407 0 2.494 2.494 0 01-.911-1.933v-5.4a.289.289 0 00-.128-.244.278.278 0 00-.254-.056l-9.153 1.464a4.43 4.43 0 01-.551.037 3.075 3.075 0 01-1.695-.487 2.515 2.515 0 01-1.271-2.214 2.466 2.466 0 01.55-1.54 2.94 2.94 0 011.992-1.126l10.128-1.614a.373.373 0 00.382-.413v-19.4a2.53 2.53 0 01.911-1.97 3.411 3.411 0 014.407 0 2.538 2.538 0 01.911 1.97v18.429a.291.291 0 00.126.244.277.277 0 00.254.055l.551-.075a4.434 4.434 0 01.551-.037 3.212 3.212 0 011.7.488 2.42 2.42 0 011.183 1.718zm-21.19-6.53a2.048 2.048 0 01-.8-1.614 1.942 1.942 0 01.8-1.577 3.356 3.356 0 012.036-.75h.126a3.161 3.161 0 011.95.638q1.566 1.2 2.754 2.214a2.3 2.3 0 01.805 1.726 2.521 2.521 0 01-1.017 2.027 2.691 2.691 0 01-1.78.637h-.254a3.142 3.142 0 01-1.949-.9q-1.187-1.164-2.671-2.401zm8.222-11.222a2.2 2.2 0 01.763 1.651v.262a2.582 2.582 0 01-1.059 1.8 2.676 2.676 0 01-1.695.6 1.57 1.57 0 01-.34-.037 3.005 3.005 0 01-1.949-.9 32.037 32.037 0 00-2.458-2.327 1.977 1.977 0 01-.763-1.576 1.943 1.943 0 01.848-1.614 3.341 3.341 0 012.076-.675 3.167 3.167 0 012.034.675q1.44 1.126 2.543 2.14z"/><path data-name="パス 43702" d="M267.558 9.316h7.5q7.541-.075 6.356 7.281a25.155 25.155 0 01-2.415 7.071 19.867 19.867 0 01-4.6 6.137 26.705 26.705 0 01-5.658 3.866 47.652 47.652 0 01-6.313 2.59q-3.01 1.012-4.407-1.5-.89-2.889 1.823-3.829a24.7 24.7 0 003.644-1.314 21.809 21.809 0 004.958-3.078 17.339 17.339 0 004.175-4.767 13.475 13.475 0 001.885-4.879q.295-1.952-1.949-1.99h-7.586a28.669 28.669 0 01-4.915 5.592q-2.5 2.1-4.746.6-2.077-2.477.042-4.392a19.408 19.408 0 002.8-2.928 21.936 21.936 0 003.093-5.893q.89-2.815 4.408-2.252 2.921.756 1.905 3.685z"/><path data-name="パス 43703" d="M287.983 8.753q0-2.889 3.262-2.89 3.306 0 3.306 2.89v11.823q0 2.889-3.263 2.889-3.3 0-3.3-2.889zm8.009 22.106a13.648 13.648 0 004.852-2.59 13.067 13.067 0 002.585-3.509 11.461 11.461 0 001.123-5.16V8.753q0-2.889 3.263-2.89 3.3 0 3.306 2.89v10.852a17.964 17.964 0 01-1.7 7.975 14.809 14.809 0 01-4.364 5.311 26.5 26.5 0 01-6.865 3.529q-3.349.9-4.408-1.8-.632-3.01 2.208-3.761z"/><path data-name="パス 43704" d="M340.909 29.209q3.306 0 3.306 2.926 0 2.966-3.306 2.965h-20.255q-3.3 0-3.306-2.927 0-2.966 3.306-2.965zm-22.756-18.653q0-2.928 3.306-2.928h18.557q3.306 0 3.305 2.928 0 2.965-3.305 2.965h-18.557q-3.3 0-3.306-2.928z"/><path data-name="パス 43705" d="M352.986 12.727l1.653 9.008q.295 1.989-1.823 2.365a1.828 1.828 0 01-2.415-1.689l-1.7-8.895q-.255-2.028 1.949-2.253 2.125-.145 2.336 1.464zm1.1 23.346q-3.011.6-3.6-1.8-.423-2.664 1.992-3.04a14.205 14.205 0 006.1-2.722 15.186 15.186 0 004.153-4.935 29.577 29.577 0 002.31-5.629 35.21 35.21 0 001-4.2q.295-2.4 3.008-2.439 2.881.112 2.458 2.815a35.627 35.627 0 01-2.288 8.876 25.345 25.345 0 01-3.856 6.1 21.083 21.083 0 01-5.465 4.628 19.291 19.291 0 01-5.809 2.35zm5.974-23.346l1.653 9.008q.295 1.989-1.865 2.365a1.828 1.828 0 01-2.415-1.689l-1.7-8.895q-.212-2.028 1.95-2.253 2.169-.145 2.38 1.464z"/><path data-name="パス 43706" d="M388.878 9.316h7.5q7.543-.075 6.357 7.281a25.12 25.12 0 01-2.415 7.071 19.866 19.866 0 01-4.6 6.137 26.743 26.743 0 01-5.658 3.866 47.708 47.708 0 01-6.314 2.59q-3.011 1.012-4.407-1.5-.89-2.889 1.821-3.829a24.7 24.7 0 003.645-1.314 21.841 21.841 0 004.958-3.078 17.335 17.335 0 004.173-4.767 13.5 13.5 0 001.886-4.879q.295-1.952-1.95-1.99h-7.585a28.623 28.623 0 01-4.916 5.592q-2.5 2.1-4.745.6-2.077-2.477.042-4.392a19.409 19.409 0 002.8-2.928 21.9 21.9 0 003.094-5.893q.89-2.815 4.407-2.252 2.924.756 1.907 3.685z"/></g><g data-name="グループ 9039"><g data-name="グループ 9038"><path data-name="パス 43707" d="M45.973 7.23a13.523 13.523 0 00-4.7-2.125 9.328 9.328 0 00-8.9 2.5 7.33 7.33 0 01-10.137.14 9.908 9.908 0 00-9.566-2.5 13.222 13.222 0 00-4.162 1.986c-7.755 5.71-2.515 18.988-1.58 21.328 2.7 6.734 8.024 12.324 11.035 12.326 2.26 0 3.641.067 5.448-6.364a5.685 5.685 0 012.547-3.414 2.386 2.386 0 012.27-.018 5.659 5.659 0 012.7 3.432c1.808 6.431 3.438 6.426 5.524 6.364 3-.088 8.375-5.592 11.068-12.326.93-2.336 6.208-15.615-1.547-21.329z" fill="#1391e6"/><path data-name="パス 43804" d="M21.329 22.049c0 2.648 2.427 4.794 5.42 4.794s5.42-2.146 5.42-4.794z" fill="#fff"/><path data-name="パス 43725" d="M2.434 8.165a1.7 1.7 0 001.1.968l.315.081c.467.118.467.314 0 .433l-.315.081a1.7 1.7 0 00-1.1.968l-.092.28c-.134.413-.356.413-.489 0l-.092-.28a1.7 1.7 0 00-1.094-.968L.35 9.647c-.467-.118-.467-.314 0-.433l.317-.081a1.7 1.7 0 001.094-.968l.092-.28c.134-.413.356-.413.489 0z" fill="#1391e6"/><path data-name="パス 43727" d="M6.556 1.204A3.471 3.471 0 008.79 3.18l.647.164c.953.245.953.644 0 .887l-.647.164a3.471 3.471 0 00-2.234 1.976l-.185.571c-.275.845-.726.845-1 0l-.187-.571A3.466 3.466 0 002.95 4.395l-.645-.164c-.953-.243-.953-.642 0-.887l.645-.164a3.466 3.466 0 002.234-1.976l.187-.571c.275-.845.726-.845 1 0z" fill="#1391e6"/><rect data-name="長方形 23377" width="2" height="4" rx="1" transform="translate(21.206 14.372)" fill="#fff"/><rect data-name="長方形 23378" width="2" height="4" rx="1" transform="translate(30.362 14.372)" fill="#fff"/></g></g></g></svg>