<svg xmlns="http://www.w3.org/2000/svg" width="276" height="253.351"><g data-name="グループ 8997" transform="translate(28 -.472)"><ellipse data-name="楕円形 423" cx="110" cy="108.764" rx="110" ry="108.764" transform="translate(0 .472)" fill="#dff1fd"/><g data-name="グループ 10927"><path data-name="パス 43784" d="M61.494 157.367h96.558a13.847 13.847 0 006.289-11.544V55.701a14.138 14.138 0 00-14.279-13.958h-24.281V40.15a1.794 1.794 0 00-1.819-1.776H95.58a1.8 1.8 0 00-1.818 1.776v1.6H69.488a14.138 14.138 0 00-14.281 13.958v90.122a13.848 13.848 0 006.287 11.537z" fill="#fff"/><g data-name="グループ 10927" fill="#1391e6"><path data-name="パス 43785" d="M150.062 159.78h-80.57a14.138 14.138 0 01-14.281-13.958V55.701a14.138 14.138 0 0114.281-13.958h80.57a14.138 14.138 0 0114.282 13.958v90.121a14.138 14.138 0 01-14.282 13.958zM69.492 46.954a8.861 8.861 0 00-8.95 8.747v90.121a8.861 8.861 0 008.95 8.747h80.57a8.861 8.861 0 008.95-8.747V55.701a8.861 8.861 0 00-8.95-8.747z"/><path data-name="パス 43786" d="M145.076 63.698a4.1 4.1 0 014.156 4.037v41.238a4.1 4.1 0 01-4.155 4.037H74.469a4.1 4.1 0 01-4.155-4.037V67.732a4.1 4.1 0 014.155-4.037h70.607m0-3.708H74.469a7.861 7.861 0 00-7.972 7.745v41.238a7.861 7.861 0 007.972 7.745h70.608a7.861 7.861 0 007.972-7.745V67.732a7.862 7.862 0 00-7.973-7.745z"/><path data-name="パス 43787" d="M78.223 126.036a8.018 8.018 0 11-8.018 8.019 8.028 8.028 0 018.018-8.019m0-3.708a11.726 11.726 0 1011.727 11.727 11.726 11.726 0 00-11.727-11.727z"/><path data-name="パス 43788" d="M141.324 126.036a8.018 8.018 0 11-8.019 8.019 8.027 8.027 0 018.019-8.019m0-3.708a11.726 11.726 0 1011.726 11.727 11.727 11.727 0 00-11.726-11.727z"/><path data-name="パス 43789" d="M119.499 56.513h-19.454a2.606 2.606 0 110-5.211h19.454a2.606 2.606 0 110 5.211z"/><path data-name="パス 43790" d="M57.811 179.172a2.606 2.606 0 01-1.972-4.309l16.736-19.391a2.606 2.606 0 013.945 3.405l-16.737 19.391a2.6 2.6 0 01-1.972.904z"/><path data-name="パス 43791" d="M161.736 179.172a2.6 2.6 0 01-1.973-.9l-16.737-19.394a2.606 2.606 0 013.944-3.405l16.737 19.391a2.606 2.606 0 01-1.972 4.309z"/><path data-name="パス 43792" d="M152.975 170.53H66.252a2.606 2.606 0 110-5.211h86.723a2.606 2.606 0 110 5.211z"/><path data-name="パス 43793" d="M123.647 38.374H95.901a1.774 1.774 0 00-1.774 1.776v4.222a1.773 1.773 0 001.774 1.773h27.746a1.773 1.773 0 001.773-1.773V40.15a1.773 1.773 0 00-1.773-1.774z"/></g></g></g><path data-name="合体 1" d="M136.244 252.309l-5.88-10.781H22a22 22 0 010-44h232a22 22 0 110 44H145.636l-5.88 10.781a2 2 0 01-3.512 0z" fill="#1391e6"/><text transform="translate(138 227.528)" fill="#fff" font-size="20" font-family="rounded-mplus-1c-bold, 'Rounded M\+ \31 c'" font-weight="700" letter-spacing=".08em"><tspan x="-71" y="0">駅</tspan><tspan y="0">から</tspan><tspan y="0">徒歩3分</tspan></text></svg>