<svg xmlns="http://www.w3.org/2000/svg" width="276" height="254.993"><g data-name="グループ 8997" transform="translate(28)"><ellipse data-name="楕円形 423" cx="110" cy="109.585" rx="110" ry="109.585" fill="#dff1fd"/><g data-name="グループ 10891"><g data-name="グループ 10889" transform="translate(44 46.131)"><g data-name="グループ 10886"><circle data-name="楕円形 428" cx="61.866" cy="61.866" r="61.866" transform="translate(2.626 2.625)" fill="#fff"/><path data-name="パス 43754" d="M64.492 128.981a64.491 64.491 0 1164.491-64.492 64.565 64.565 0 01-64.491 64.492zm0-123.731a59.241 59.241 0 1059.24 59.24 59.307 59.307 0 00-59.24-59.24z" fill="#1391e6"/></g><g data-name="グループ 10887" transform="translate(60.71 10.282)" fill="#1391e6"><circle data-name="楕円形 429" cx="3.782" cy="3.782" r="3.782"/><circle data-name="楕円形 430" cx="3.782" cy="3.782" r="3.782" transform="translate(0 100.854)"/></g><g data-name="グループ 10888" transform="translate(10.283 60.709)" fill="#1391e6"><circle data-name="楕円形 431" cx="3.782" cy="3.782" r="3.782" transform="translate(100.854)"/><circle data-name="楕円形 432" cx="3.782" cy="3.782" r="3.782"/></g><circle data-name="楕円形 433" cx="2.062" cy="2.062" r="2.062" transform="translate(106.101 37.215)" fill="#1391e6"/><circle data-name="楕円形 434" cx="2.062" cy="2.062" r="2.062" transform="translate(18.758 87.642)" fill="#1391e6"/><circle data-name="楕円形 435" cx="2.062" cy="2.062" r="2.062" transform="translate(87.643 18.757)" fill="#1391e6"/><circle data-name="楕円形 436" cx="2.062" cy="2.062" r="2.062" transform="translate(37.216 106.1)" fill="#1391e6"/><circle data-name="楕円形 437" cx="2.062" cy="2.062" r="2.062" transform="translate(37.216 18.757)" fill="#1391e6"/><circle data-name="楕円形 438" cx="2.062" cy="2.062" r="2.062" transform="translate(87.643 106.1)" fill="#1391e6"/><circle data-name="楕円形 439" cx="2.062" cy="2.062" r="2.062" transform="translate(18.758 37.215)" fill="#1391e6"/><circle data-name="楕円形 440" cx="2.062" cy="2.062" r="2.062" transform="translate(106.101 87.642)" fill="#1391e6"/><path data-name="パス 43755" d="M64.492 106.612c-1.054 0-1.928-1.164-2-2.661l-1.649-36.435c-.075-1.639.84-3.026 2-3.026h3.3c1.155 0 2.07 1.387 2 3.026l-1.649 36.435c-.075 1.497-.948 2.661-2.002 2.661z" fill="#1391e6"/><path data-name="パス 43756" d="M33.743 72.915a2.2 2.2 0 011.352-2.679l25.948-8.852a2.184 2.184 0 012.774 1.577l.956 3.576a2.183 2.183 0 01-1.617 2.75l-26.9 5.276a2.2 2.2 0 01-2.513-1.648z" fill="#1391e6"/><circle data-name="楕円形 441" cx="5.074" cy="5.074" r="5.074" transform="translate(59.15 59.416)" fill="#1391e6"/></g><g data-name="グループ 10890" transform="translate(127.515 44)"><circle data-name="楕円形 442" cx="23.799" cy="23.799" r="23.799" fill="#1391e6"/><path data-name="パス 43757" d="M34.711 12.884a15.414 15.414 0 00-12.963-4.375A10.014 10.014 0 118.509 21.748a15.43 15.43 0 1026.2-8.864z" fill="#fff"/></g></g></g><path data-name="合体 1" d="M136.244 253.951l-5.88-10.781H22a22 22 0 010-44h232a22 22 0 110 44H145.636l-5.88 10.781a2 2 0 01-3.512 0z" fill="#1391e6"/><text transform="translate(138 229.17)" fill="#fff" font-size="20" font-family="rounded-mplus-1c-bold, 'Rounded M\+ \31 c'" font-weight="700" letter-spacing=".08em"><tspan x="-86" y="0">夜20:30</tspan><tspan y="0">まで</tspan><tspan y="0">営業</tspan></text></svg>