<svg xmlns="http://www.w3.org/2000/svg" width="276" height="254.993"><g transform="translate(28.5)"><ellipse data-name="楕円形 423" cx="110" cy="109.585" rx="110" ry="109.585" fill="#dff1fd"/><g data-name="グループ 10881"><g data-name="グループ 8993" fill="#1391e6"><path data-name="パス 43689" d="M53.547 101.689a2.369 2.369 0 00-2.361-2.377l-22.242-.066a2.37 2.37 0 10-.012 4.74l22.241.066a2.37 2.37 0 002.374-2.363z"/><path data-name="パス 43690" d="M54.082 82.83L37.07 76.509a2.37 2.37 0 10-1.651 4.443l17.008 6.322a2.37 2.37 0 101.651-4.443z"/><path data-name="パス 43691" d="M52.344 116.299l-15.955 5.826a2.371 2.371 0 00.806 4.6 2.4 2.4 0 00.819-.144l15.96-5.832a2.37 2.37 0 00-1.63-4.45z"/><path data-name="パス 43692" d="M191.85 99.725l-22.242-.065a2.367 2.367 0 00-2.376 2.359 2.368 2.368 0 002.361 2.381l22.24.066a2.37 2.37 0 002.378-2.361 2.37 2.37 0 00-2.361-2.378z"/><path data-name="パス 43693" d="M167.614 87.758a2.338 2.338 0 00.819-.143l17.043-6.224a2.37 2.37 0 001.414-3.042 2.37 2.37 0 00-3.039-1.414l-17.043 6.221a2.372 2.372 0 00-1.414 3.041 2.371 2.371 0 002.22 1.561z"/><path data-name="パス 43694" d="M184.269 122.552l-15.916-5.916a2.37 2.37 0 00-3.047 1.4 2.37 2.37 0 001.4 3.048L182.622 127a2.315 2.315 0 00.818.149 2.37 2.37 0 00.833-4.593z"/></g><g data-name="グループ 10881"><path data-name="パス 43740" d="M148.188 92.866c-7.5 66.635-18.823 71.782-22.109 71.773a4.543 4.543 0 01-3.3-1.333c-1.112-1.356-.929-3.755-.581-5.528 1.053-5.318 5.864-22.217-2.7-32.667a11.6 11.6 0 00-17.963-.051c-8.622 10.4-3.968 27.325-2.948 32.647.339 1.777.506 4.177-.614 5.526a4.544 4.544 0 01-3.31 1.314c-3.29-.01-14.572-5.224-21.692-71.9-1.419-13.266-.141-22.21 3.793-26.576 3.574-3.968 9.971-4.558 19.72-1.937a48.458 48.458 0 0028.36.083c9.756-2.565 16.151-1.936 19.706 2.054 3.911 4.392 5.134 13.34 3.637 26.6z" fill="#fff"/><path data-name="パス 43741" d="M86.277 62.534a40.176 40.176 0 0110.207 1.593 48.459 48.459 0 0028.36.083 40.428 40.428 0 0110.072-1.534c4.319 0 7.492 1.184 9.634 3.588 3.911 4.392 5.134 13.34 3.637 26.6-7.5 66.574-18.8 71.773-22.1 71.773h-.095a4.546 4.546 0 01-3.218-1.334c-1.112-1.356-.929-3.755-.581-5.528 1.053-5.318 5.864-22.217-2.7-32.667a11.31 11.31 0 00-8.864-4.285h-.267a11.31 11.31 0 00-8.823 4.234c-8.622 10.4-3.968 27.325-2.948 32.647.339 1.777.506 4.177-.614 5.526a4.543 4.543 0 01-3.2 1.316h-.114c-3.29-.01-14.572-5.224-21.692-71.9-1.419-13.266-.141-22.21 3.793-26.576 2.13-2.365 5.264-3.53 9.513-3.53m0-5.251c-5.753 0-10.267 1.772-13.414 5.268-5.047 5.6-6.72 15.625-5.112 30.648 5.491 51.427 14.27 76.484 26.84 76.595h.186a9.732 9.732 0 006.891-2.836l.181-.179.164-.2c1.949-2.349 2.532-5.667 1.732-9.864-.1-.512-.226-1.118-.372-1.811-1.2-5.684-4.02-18.995 2.2-26.5l.027-.032.027-.033a6.032 6.032 0 014.728-2.269h.276a6.026 6.026 0 014.75 2.3l.026.033.027.032c6.155 7.515 3.247 20.786 2 26.454-.158.717-.295 1.345-.4 1.867-.824 4.2-.261 7.52 1.672 9.876l.162.2.181.181a9.733 9.733 0 006.935 2.877h.086c12.6 0 21.535-25 27.327-76.436 1.694-15.015.081-25.051-4.934-30.682-3.161-3.548-7.722-5.346-13.555-5.346a45.184 45.184 0 00-11.408 1.707l-.063.016-.062.018a43.235 43.235 0 01-25.408-.075l-.064-.019-.064-.017a44.953 44.953 0 00-11.57-1.773z" fill="#1391e6"/></g><g data-name="グループ 10882" fill="#1391e6"><path data-name="パス 43742" d="M101.924 83.596a1.793 1.793 0 01-.8-3.4l17.2-8.529a1.793 1.793 0 111.593 3.212l-17.2 8.529a1.788 1.788 0 01-.793.188z"/><path data-name="パス 43743" d="M119.123 83.596a1.788 1.788 0 01-.8-.188l-17.2-8.529a1.793 1.793 0 011.593-3.212l17.2 8.529a1.793 1.793 0 01-.8 3.4z"/></g></g></g><path data-name="合体 1" d="M136.244 253.951l-5.88-10.781H22a22 22 0 010-44h232a22 22 0 110 44H145.636l-5.88 10.781a2 2 0 01-3.512 0z" fill="#1391e6"/><text transform="translate(138 229.17)" fill="#fff" font-size="20" font-family="rounded-mplus-1c-bold, 'Rounded M\+ \31 c'" font-weight="700" letter-spacing=".08em"><tspan x="-118" y="0">痛</tspan><tspan y="0">くない</tspan><tspan y="0">歯科医療</tspan><tspan y="0">の</tspan><tspan y="0">追求</tspan></text></svg>