<svg xmlns="http://www.w3.org/2000/svg" width="177.356" height="32.026"><g data-name="グループ 10939" fill="#1391e6" fill-rule="evenodd"><path data-name="パス 43802" d="M173.318 1.36a89.035 89.035 0 00-5.121 8.279c-3.46 6.03-9.258 16.684-11.373 20.328-1.1 1.9.538 2.339 1.1 1.622.246-.314 5.183-8.122 9.772-15.865 3.594-6.063 6.973-12.241 7.716-13.725.506-1.011-1.143-2.214-2.094-.639z"/><path data-name="パス 43803" d="M174.769 23.6c-1.451 1.4-5.233 4.785-6.711 6.784-1.579 1.953.68 2 1.7 1 1.082-1.058 5.7-5.644 6.814-7.005 1.728-2.102.361-2.923-1.803-.779z"/></g><g data-name="グループ 10893"><g data-name="グループ 10932"><path data-name="パス 43836" d="M118.09 7.76a4.471 4.471 0 00-4.16-2.4 4.471 4.471 0 00-4.16 2.4q-1.36 2.4-1.36 8.24t1.36 8.24a4.471 4.471 0 004.16 2.4 4.471 4.471 0 004.16-2.4q1.36-2.4 1.36-8.24t-1.36-8.24zm4.24 19.68q-2.76 3.56-8.4 3.56t-8.42-3.56q-2.78-3.56-2.78-11.44t2.78-11.44Q108.29 1 113.93 1t8.42 3.56q2.78 3.56 2.78 11.44t-2.8 11.44zm10.32-15.28a1.018 1.018 0 01-1.18.12 1.055 1.055 0 01-.62-1v-1.6a4.4 4.4 0 011.8-3.64l4.28-3.28a6.594 6.594 0 014.08-1.36h1.2a2.125 2.125 0 011.58.68 2.222 2.222 0 01.66 1.6v24.64a2.222 2.222 0 01-.66 1.6 2.125 2.125 0 01-1.58.68h-1.2a2.189 2.189 0 01-1.6-.68 2.189 2.189 0 01-.68-1.6V7.56l-.04-.04-.04.04z" fill="none" stroke="#1391e6" stroke-width="2"/></g><path data-name="パス 43835" d="M37.21 16.156a3.977 3.977 0 00-1.7.912 1.758 1.758 0 00-.572 1.264 1.509 1.509 0 00.5 1.112 1.551 1.551 0 001.1.488.82.82 0 00.632-.192 1.128 1.128 0 00.168-.72v-2.768q0-.128-.128-.096zm-.464 5.584a3.977 3.977 0 01-2.72-.984 3.1 3.1 0 01-1.12-2.424 3.446 3.446 0 011.128-2.5A6.716 6.716 0 0137.21 14.2a.161.161 0 00.128-.176v-2.012a.127.127 0 00-.144-.144h-2.736a.817.817 0 01-.6-.248.817.817 0 01-.248-.6.817.817 0 01.248-.6.817.817 0 01.6-.248h2.736a.127.127 0 00.144-.144V9.1a.876.876 0 01.272-.64.876.876 0 01.64-.272h.208a.876.876 0 01.64.272.876.876 0 01.272.64v.928q0 .144.128.144h2.528a.844.844 0 01.608.248.8.8 0 01.256.6.8.8 0 01-.256.6.844.844 0 01-.608.248h-2.528q-.128 0-.128.144v1.728q0 .128.144.128.256-.016.816-.016a6.165 6.165 0 013.824 1.1 3.267 3.267 0 011.456 2.672q0 3.408-3.68 4.176a.887.887 0 01-.7-.136.987.987 0 01-.416-.6l-.016-.048a.818.818 0 01.12-.656.869.869 0 01.552-.384 2.986 2.986 0 001.568-.804 2.061 2.061 0 00.5-1.432 1.665 1.665 0 00-.872-1.384 4.123 4.123 0 00-2.328-.584q-.56 0-.816.016a.127.127 0 00-.144.144v3.2a2.835 2.835 0 01-.576 2.04 2.894 2.894 0 01-2.056.568zm8.592-11.5q.864 1.168 1.5 2.192a.827.827 0 01.1.664.814.814 0 01-.392.536.9.9 0 01-.672.088.87.87 0 01-.544-.392q-.768-1.2-1.408-2.08a.858.858 0 01-.16-.64.8.8 0 01.336-.56.893.893 0 01.664-.152.83.83 0 01.576.34zm10.8 6.14a1.36 1.36 0 00.448-1.04 1.335 1.335 0 00-.448-1.032 1.645 1.645 0 00-1.152-.408 1.645 1.645 0 00-1.148.408 1.335 1.335 0 00-.448 1.032 1.335 1.335 0 00.448 1.032 1.645 1.645 0 001.152.408 1.665 1.665 0 001.148-.4zm-6.48-4.88a.817.817 0 01-.6-.248.817.817 0 01-.248-.6.844.844 0 01.248-.608.8.8 0 01.6-.256h6.58q.144 0 .144-.128v-.72a.876.876 0 01.272-.64.876.876 0 01.64-.272h.208a.876.876 0 01.64.272.876.876 0 01.272.64v.7q0 .144.128.144h3.28a.8.8 0 01.6.256.844.844 0 01.248.608.817.817 0 01-.248.6.817.817 0 01-.6.248h-3.284q-.128 0-.128.144v2.9a.69.69 0 00.048.272 5.584 5.584 0 01.368 2.016 4.855 4.855 0 01-1.188 3.504A6.81 6.81 0 0153.722 22a.838.838 0 01-.684-.18 1.023 1.023 0 01-.392-.608v-.064a.812.812 0 01.156-.648.883.883 0 01.584-.36 6.185 6.185 0 002.464-.776 2.294 2.294 0 00.928-1.448.071.071 0 01.008-.032.071.071 0 00.008-.032v-.016h-.048a3.215 3.215 0 01-2.08.656 3.279 3.279 0 01-2.376-.892 3.01 3.01 0 01-.92-2.264 2.978 2.978 0 01.936-2.272 3.4 3.4 0 012.424-.88 3.593 3.593 0 011.6.368q.016 0 .016.008t.016.008a.014.014 0 00.016-.016v-.912a.127.127 0 00-.14-.14zm22.48 4.88a1.36 1.36 0 00.448-1.04 1.335 1.335 0 00-.448-1.032 1.645 1.645 0 00-1.152-.408 1.645 1.645 0 00-1.148.408 1.335 1.335 0 00-.452 1.032 1.335 1.335 0 00.452 1.032 1.645 1.645 0 001.152.408 1.665 1.665 0 001.148-.4zm-6.48-4.88a.817.817 0 01-.6-.248.817.817 0 01-.248-.6.844.844 0 01.248-.608.8.8 0 01.6-.256h6.58q.144 0 .144-.128v-.72a.876.876 0 01.272-.64.876.876 0 01.64-.272h.204a.876.876 0 01.64.272.876.876 0 01.272.64v.7q0 .144.128.144h3.28a.8.8 0 01.6.256.844.844 0 01.248.608.817.817 0 01-.248.6.817.817 0 01-.6.248h-3.28q-.128 0-.128.144v2.9a.69.69 0 00.048.272 5.584 5.584 0 01.368 2.016 4.855 4.855 0 01-1.188 3.504A6.81 6.81 0 0169.722 22a.838.838 0 01-.684-.18 1.023 1.023 0 01-.388-.608v-.064a.812.812 0 01.152-.648.883.883 0 01.584-.36 6.185 6.185 0 002.464-.776 2.294 2.294 0 00.928-1.448.071.071 0 01.008-.032.071.071 0 00.008-.032v-.016h-.048a3.215 3.215 0 01-2.08.656 3.279 3.279 0 01-2.376-.892 3.01 3.01 0 01-.92-2.264 2.978 2.978 0 01.936-2.272 3.4 3.4 0 012.424-.88 3.593 3.593 0 011.6.368q.016 0 .016.008t.016.008a.014.014 0 00.016-.016v-.912a.127.127 0 00-.14-.14zm18.208 2.528a4.43 4.43 0 00-1.2 3.12 3.167 3.167 0 00.36 1.656 1.03 1.03 0 00.872.584 2.3 2.3 0 001.5-.9.191.191 0 00.016-.224.36.36 0 01-.064-.128q-.768-2.144-1.36-4.064-.028-.14-.124-.044zm4.192-1.616a6.679 6.679 0 00-2.272.368.147.147 0 00-.1.192q.452 1.536 1.092 3.456.032.1.112-.016a23.079 23.079 0 001.748-3.84.121.121 0 00-.008-.1.077.077 0 00-.072-.048q-.164-.012-.5-.012zm-4.368 8.96a2.543 2.543 0 01-2.1-1.112 5.068 5.068 0 01-.84-3.112 6.636 6.636 0 01.656-2.936 6.423 6.423 0 011.84-2.28.194.194 0 00.1-.192q-.32-1.184-.464-1.792a.894.894 0 01.12-.688.806.806 0 01.568-.384l.144-.032a.973.973 0 01.688.128.833.833 0 01.4.56q.048.224.16.648t.144.584q.032.112.16.08a8.248 8.248 0 012.8-.464 8.965 8.965 0 011.136.064.13.13 0 00.176-.112q.128-.432.384-1.36a.943.943 0 01.424-.576.9.9 0 01.7-.128l.128.032a.867.867 0 01.568.392.794.794 0 01.1.664q-.224.928-.4 1.488a.134.134 0 00.08.176 5.6 5.6 0 012.476 2.016 5.335 5.335 0 01.9 3.056 6.081 6.081 0 01-1.1 3.776 5.477 5.477 0 01-3.2 1.968.849.849 0 01-.7-.112.947.947 0 01-.424-.592l-.024-.112a.764.764 0 01.1-.648.925.925 0 01.552-.408 3.6 3.6 0 002.756-3.872 3.351 3.351 0 00-.52-1.84 3.542 3.542 0 00-1.464-1.28q-.1-.048-.16.08a19.52 19.52 0 01-3.316 6.232q-1.836 2.088-3.548 2.088z" fill="#1391e6"/></g><g data-name="グループ 10938" fill="#1391e6" fill-rule="evenodd"><path data-name="パス 43802" d="M4.038 1.36a89.035 89.035 0 015.121 8.279c3.46 6.03 9.258 16.684 11.373 20.328 1.1 1.9-.538 2.339-1.1 1.622-.246-.314-5.183-8.122-9.772-15.865C6.066 9.661 2.687 3.483 1.944 1.999 1.438.988 3.087-.215 4.038 1.36z"/><path data-name="パス 43803" d="M2.586 23.6c1.451 1.4 5.233 4.785 6.711 6.784 1.579 1.953-.68 2-1.7 1-1.082-1.058-5.7-5.644-6.814-7.005-1.728-2.102-.361-2.923 1.803-.779z"/></g></svg>