<svg xmlns="http://www.w3.org/2000/svg" width="415" height="120"><defs><clipPath id="a"><path fill="none" d="M0 0h415v7H0z"/></clipPath><clipPath id="b"><path fill="none" d="M0 0h378v7H0z"/></clipPath></defs><g data-name="リピートグリッド 16" transform="translate(0 113)" clip-path="url(#a)" fill="#fff"><circle data-name="楕円形 443" cx="2" cy="2" r="2"/><circle data-name="楕円形 443" cx="2" cy="2" r="2" transform="translate(10)"/><circle data-name="楕円形 443" cx="2" cy="2" r="2" transform="translate(20)"/><circle data-name="楕円形 443" cx="2" cy="2" r="2" transform="translate(30)"/><circle data-name="楕円形 443" cx="2" cy="2" r="2" transform="translate(40)"/><circle data-name="楕円形 443" cx="2" cy="2" r="2" transform="translate(50)"/><circle data-name="楕円形 443" cx="2" cy="2" r="2" transform="translate(60)"/><circle data-name="楕円形 443" cx="2" cy="2" r="2" transform="translate(70)"/><circle data-name="楕円形 443" cx="2" cy="2" r="2" transform="translate(80)"/><circle data-name="楕円形 443" cx="2" cy="2" r="2" transform="translate(90)"/><circle data-name="楕円形 443" cx="2" cy="2" r="2" transform="translate(100)"/><circle data-name="楕円形 443" cx="2" cy="2" r="2" transform="translate(110)"/><circle data-name="楕円形 443" cx="2" cy="2" r="2" transform="translate(120)"/><circle data-name="楕円形 443" cx="2" cy="2" r="2" transform="translate(130)"/><circle data-name="楕円形 443" cx="2" cy="2" r="2" transform="translate(140)"/><circle data-name="楕円形 443" cx="2" cy="2" r="2" transform="translate(150)"/><circle data-name="楕円形 443" cx="2" cy="2" r="2" transform="translate(160)"/><circle data-name="楕円形 443" cx="2" cy="2" r="2" transform="translate(170)"/><circle data-name="楕円形 443" cx="2" cy="2" r="2" transform="translate(180)"/><circle data-name="楕円形 443" cx="2" cy="2" r="2" transform="translate(190)"/><circle data-name="楕円形 443" cx="2" cy="2" r="2" transform="translate(200)"/><circle data-name="楕円形 443" cx="2" cy="2" r="2" transform="translate(210)"/><circle data-name="楕円形 443" cx="2" cy="2" r="2" transform="translate(220)"/><circle data-name="楕円形 443" cx="2" cy="2" r="2" transform="translate(230)"/><circle data-name="楕円形 443" cx="2" cy="2" r="2" transform="translate(240)"/><circle data-name="楕円形 443" cx="2" cy="2" r="2" transform="translate(250)"/><circle data-name="楕円形 443" cx="2" cy="2" r="2" transform="translate(260)"/><circle data-name="楕円形 443" cx="2" cy="2" r="2" transform="translate(270)"/><circle data-name="楕円形 443" cx="2" cy="2" r="2" transform="translate(280)"/><circle data-name="楕円形 443" cx="2" cy="2" r="2" transform="translate(290)"/><circle data-name="楕円形 443" cx="2" cy="2" r="2" transform="translate(300)"/><circle data-name="楕円形 443" cx="2" cy="2" r="2" transform="translate(310)"/><circle data-name="楕円形 443" cx="2" cy="2" r="2" transform="translate(320)"/><circle data-name="楕円形 443" cx="2" cy="2" r="2" transform="translate(330)"/><circle data-name="楕円形 443" cx="2" cy="2" r="2" transform="translate(340)"/><circle data-name="楕円形 443" cx="2" cy="2" r="2" transform="translate(350)"/><circle data-name="楕円形 443" cx="2" cy="2" r="2" transform="translate(360)"/><circle data-name="楕円形 443" cx="2" cy="2" r="2" transform="translate(370)"/><circle data-name="楕円形 443" cx="2" cy="2" r="2" transform="translate(380)"/><circle data-name="楕円形 443" cx="2" cy="2" r="2" transform="translate(390)"/><circle data-name="楕円形 443" cx="2" cy="2" r="2" transform="translate(400)"/><circle data-name="楕円形 443" cx="2" cy="2" r="2" transform="translate(410)"/></g><text transform="translate(0 99)" fill="#fff" font-size="32" font-family="rounded-mplus-1c-bold, 'Rounded M\+ \31 c'" font-weight="700" letter-spacing=".08em"><tspan x="0" y="0">アットホームな</tspan><tspan y="0">歯医者</tspan><tspan y="0">さん</tspan></text><g data-name="リピートグリッド 14" transform="translate(0 48)" clip-path="url(#b)" fill="#fff"><circle data-name="楕円形 443" cx="2" cy="2" r="2"/><circle data-name="楕円形 443" cx="2" cy="2" r="2" transform="translate(10)"/><circle data-name="楕円形 443" cx="2" cy="2" r="2" transform="translate(20)"/><circle data-name="楕円形 443" cx="2" cy="2" r="2" transform="translate(30)"/><circle data-name="楕円形 443" cx="2" cy="2" r="2" transform="translate(40)"/><circle data-name="楕円形 443" cx="2" cy="2" r="2" transform="translate(50)"/><circle data-name="楕円形 443" cx="2" cy="2" r="2" transform="translate(60)"/><circle data-name="楕円形 443" cx="2" cy="2" r="2" transform="translate(70)"/><circle data-name="楕円形 443" cx="2" cy="2" r="2" transform="translate(80)"/><circle data-name="楕円形 443" cx="2" cy="2" r="2" transform="translate(90)"/><circle data-name="楕円形 443" cx="2" cy="2" r="2" transform="translate(100)"/><circle data-name="楕円形 443" cx="2" cy="2" r="2" transform="translate(110)"/><circle data-name="楕円形 443" cx="2" cy="2" r="2" transform="translate(120)"/><circle data-name="楕円形 443" cx="2" cy="2" r="2" transform="translate(130)"/><circle data-name="楕円形 443" cx="2" cy="2" r="2" transform="translate(140)"/><circle data-name="楕円形 443" cx="2" cy="2" r="2" transform="translate(150)"/><circle data-name="楕円形 443" cx="2" cy="2" r="2" transform="translate(160)"/><circle data-name="楕円形 443" cx="2" cy="2" r="2" transform="translate(170)"/><circle data-name="楕円形 443" cx="2" cy="2" r="2" transform="translate(180)"/><circle data-name="楕円形 443" cx="2" cy="2" r="2" transform="translate(190)"/><circle data-name="楕円形 443" cx="2" cy="2" r="2" transform="translate(200)"/><circle data-name="楕円形 443" cx="2" cy="2" r="2" transform="translate(210)"/><circle data-name="楕円形 443" cx="2" cy="2" r="2" transform="translate(220)"/><circle data-name="楕円形 443" cx="2" cy="2" r="2" transform="translate(230)"/><circle data-name="楕円形 443" cx="2" cy="2" r="2" transform="translate(240)"/><circle data-name="楕円形 443" cx="2" cy="2" r="2" transform="translate(250)"/><circle data-name="楕円形 443" cx="2" cy="2" r="2" transform="translate(260)"/><circle data-name="楕円形 443" cx="2" cy="2" r="2" transform="translate(270)"/><circle data-name="楕円形 443" cx="2" cy="2" r="2" transform="translate(280)"/><circle data-name="楕円形 443" cx="2" cy="2" r="2" transform="translate(290)"/><circle data-name="楕円形 443" cx="2" cy="2" r="2" transform="translate(300)"/><circle data-name="楕円形 443" cx="2" cy="2" r="2" transform="translate(310)"/><circle data-name="楕円形 443" cx="2" cy="2" r="2" transform="translate(320)"/><circle data-name="楕円形 443" cx="2" cy="2" r="2" transform="translate(330)"/><circle data-name="楕円形 443" cx="2" cy="2" r="2" transform="translate(340)"/><circle data-name="楕円形 443" cx="2" cy="2" r="2" transform="translate(350)"/><circle data-name="楕円形 443" cx="2" cy="2" r="2" transform="translate(360)"/><circle data-name="楕円形 443" cx="2" cy="2" r="2" transform="translate(370)"/></g><text transform="translate(0 34)" fill="#fff" font-size="32" font-family="rounded-mplus-1c-bold, 'Rounded M\+ \31 c'" font-weight="700" letter-spacing=".08em"><tspan x="0" y="0">街</tspan><tspan y="0">の</tspan><tspan y="0">皆</tspan><tspan y="0">さまの</tspan><tspan y="0">笑顔</tspan><tspan y="0">を</tspan><tspan y="0">守</tspan><tspan y="0">る</tspan></text></svg>