<svg xmlns="http://www.w3.org/2000/svg" width="1280" height="32"><defs><clipPath id="a"><path fill="none" d="M0 0h1280v32H0z"/></clipPath></defs><g data-name="レイヤー 1" clip-path="url(#a)"><g data-name="レイヤー 1"><path data-name="パス 43736" d="M0 14.24c10.619 0 16-3.69 21.208-7.26S31.374 0 41.5 0s15.084 3.39 20.292 7S72.4 14.24 83 14.24V32H0z" fill="#dff1fd"/></g><g data-name="レイヤー 1"><path data-name="パス 43736" d="M83 14.24c10.619 0 16-3.69 21.208-7.26S114.374 0 124.5 0s15.084 3.39 20.292 7S155.4 14.24 166 14.24V32H83z" fill="#dff1fd"/></g><g data-name="レイヤー 1"><path data-name="パス 43736" d="M166 14.24c10.619 0 16-3.69 21.208-7.26S197.374 0 207.5 0s15.084 3.39 20.292 7S238.4 14.24 249 14.24V32h-83z" fill="#dff1fd"/></g><g data-name="レイヤー 1"><path data-name="パス 43736" d="M249 14.24c10.619 0 16-3.69 21.208-7.26S280.374 0 290.5 0s15.084 3.39 20.292 7S321.4 14.24 332 14.24V32h-83z" fill="#dff1fd"/></g><g data-name="レイヤー 1"><path data-name="パス 43736" d="M332 14.24c10.619 0 16-3.69 21.208-7.26S363.374 0 373.5 0s15.084 3.39 20.292 7S404.4 14.24 415 14.24V32h-83z" fill="#dff1fd"/></g><g data-name="レイヤー 1"><path data-name="パス 43736" d="M415 14.24c10.619 0 16-3.69 21.208-7.26S446.374 0 456.5 0s15.084 3.39 20.292 7S487.4 14.24 498 14.24V32h-83z" fill="#dff1fd"/></g><g data-name="レイヤー 1"><path data-name="パス 43736" d="M498 14.24c10.619 0 16-3.69 21.208-7.26S529.374 0 539.5 0s15.084 3.39 20.292 7S570.4 14.24 581 14.24V32h-83z" fill="#dff1fd"/></g><g data-name="レイヤー 1"><path data-name="パス 43736" d="M581 14.24c10.619 0 16-3.69 21.208-7.26S612.374 0 622.5 0s15.084 3.39 20.292 7S653.4 14.24 664 14.24V32h-83z" fill="#dff1fd"/></g><g data-name="レイヤー 1"><path data-name="パス 43736" d="M664 14.24c10.619 0 16-3.69 21.208-7.26S695.374 0 705.5 0s15.084 3.39 20.292 7S736.4 14.24 747 14.24V32h-83z" fill="#dff1fd"/></g><g data-name="レイヤー 1"><path data-name="パス 43736" d="M747 14.24c10.619 0 16-3.69 21.208-7.26S778.374 0 788.5 0s15.084 3.39 20.292 7S819.4 14.24 830 14.24V32h-83z" fill="#dff1fd"/></g><g data-name="レイヤー 1"><path data-name="パス 43736" d="M830 14.24c10.619 0 16-3.69 21.208-7.26S861.374 0 871.5 0s15.084 3.39 20.292 7S902.4 14.24 913 14.24V32h-83z" fill="#dff1fd"/></g><g data-name="レイヤー 1"><path data-name="パス 43736" d="M913 14.24c10.619 0 16-3.69 21.208-7.26S944.374 0 954.5 0s15.084 3.39 20.292 7S985.4 14.24 996 14.24V32h-83z" fill="#dff1fd"/></g><g data-name="レイヤー 1"><path data-name="パス 43736" d="M996 14.24c10.619 0 16-3.69 21.208-7.26S1027.374 0 1037.5 0s15.084 3.39 20.292 7 10.608 7.24 21.208 7.24V32h-83z" fill="#dff1fd"/></g><g data-name="レイヤー 1"><path data-name="パス 43736" d="M1079 14.24c10.619 0 16-3.69 21.208-7.26S1110.374 0 1120.5 0s15.084 3.39 20.292 7 10.608 7.24 21.208 7.24V32h-83z" fill="#dff1fd"/></g><g data-name="レイヤー 1"><path data-name="パス 43736" d="M1162 14.24c10.619 0 16-3.69 21.208-7.26S1193.374 0 1203.5 0s15.084 3.39 20.292 7 10.608 7.24 21.208 7.24V32h-83z" fill="#dff1fd"/></g><g data-name="レイヤー 1"><path data-name="パス 43736" d="M1245 14.24c10.619 0 16-3.69 21.208-7.26S1276.374 0 1286.5 0s15.084 3.39 20.292 7 10.608 7.24 21.208 7.24V32h-83z" fill="#dff1fd"/></g></g></svg>