<svg xmlns="http://www.w3.org/2000/svg" width="20" height="20"><path data-name="長方形 23402" fill="none" d="M0 0h20v20H0z"/><path d="M4 16.573a1.391 1.391 0 001.377 1.4h10.1a1.391 1.391 0 001.377-1.4V8.616H4zm9.182-5.734a.349.349 0 01.344-.351h1.148a.349.349 0 01.344.351v1.17a.349.349 0 01-.344.351h-1.148a.349.349 0 01-.344-.351zm0 3.744a.349.349 0 01.344-.351h1.148a.349.349 0 01.344.351v1.17a.349.349 0 01-.344.351h-1.148a.349.349 0 01-.344-.351zm-3.673-3.744a.349.349 0 01.344-.351H11a.349.349 0 01.344.351v1.17a.349.349 0 01-.344.351H9.853a.349.349 0 01-.344-.351zm0 3.744a.349.349 0 01.344-.351H11a.349.349 0 01.344.351v1.17A.349.349 0 0111 16.1H9.853a.349.349 0 01-.344-.351zm-3.673-3.744a.349.349 0 01.344-.351h1.148a.349.349 0 01.344.351v1.17a.349.349 0 01-.344.351H6.181a.349.349 0 01-.344-.351zm0 3.744a.349.349 0 01.344-.351h1.148a.349.349 0 01.344.351v1.17a.349.349 0 01-.344.351H6.181a.349.349 0 01-.344-.351zm9.641-9.711H14.1V3.468A.465.465 0 0013.641 3h-.918a.465.465 0 00-.459.468v1.4H8.591v-1.4A.465.465 0 008.132 3h-.918a.465.465 0 00-.459.468v1.4H5.377A1.391 1.391 0 004 6.276v1.4h12.854v-1.4a1.391 1.391 0 00-1.377-1.404z" fill="#393939"/></svg>